# xmcd
#
# Track frame offsets:
#  150
#  17577
#  38020
#  55310
#  75170
#  94307
#  103250
#  122985
#  139765
#  157102
#  176465
#
# Disc length: 2662 seconds
#
# Revision: 0
# Processed by: cddbd v1.5.1PL0 Copyright (c) Steve Scherf et al.
# Submitted via: Collectorz.com Music Collector 6.9
#
DISCID=8a0a640b
DTITLE=Krista Detor - A Dream in a Cornfield
DYEAR=2003
DGENRE=Americana
TTITLE0=I Don't Think So
TTITLE1=Artless
TTITLE2=Blue Sky
TTITLE3=Fishing
TTITLE4=Something Missing
TTITLE5=Penny on the Road
TTITLE6=Bus to Indiana
TTITLE7=Under His Skin
TTITLE8=Calling Robert
TTITLE9=Salome
TTITLE10=On the Water
EXTD=
EXTT0=
EXTT1=
EXTT2=
EXTT3=
EXTT4=
EXTT5=
EXTT6=
EXTT7=
EXTT8=
EXTT9=
EXTT10=
PLAYORDER=
